<?xml version="1.0" encoding="UTF-8" standalone="no"?>
<svg
   xmlns:dc="http://purl.org/dc/elements/1.1/"
   xmlns:cc="http://creativecommons.org/ns#"
   xmlns:rdf="http://www.w3.org/1999/02/22-rdf-syntax-ns#"
   xmlns:svg="http://www.w3.org/2000/svg"
   xmlns="http://www.w3.org/2000/svg"
   viewBox="0 0 2829.3333 2829.3333"
   height="600px"
   width="600px"
   xml:space="preserve"
   id="svg2"
   version="1.1"><metadata
     id="metadata8"><rdf:RDF><cc:Work
         rdf:about=""><dc:format>image/svg+xml</dc:format><dc:type
           rdf:resource="http://purl.org/dc/dcmitype/StillImage" /></cc:Work></rdf:RDF></metadata><defs
     id="defs6" /><g
     transform="matrix(1.3333333,0,0,-1.3333333,0,2829.3333)"
     id="g10"><g
       transform="scale(0.1)"
       id="g12"><g
         transform="scale(1.05482)"
         id="g14"><path
           id="path16"
           style="fill:#252745;fill-opacity:1;fill-rule:nonzero;stroke:none"
           d="m 5057.11,16300 v -4339.8 h 116.17 V 16300 h -116.17" /></g><path
         id="path18"
         style="fill:#15151c;fill-opacity:1;fill-rule:nonzero;stroke:none"
         d="m 11835.4,13050.9 h -1638.3 c 62.8,-51.5 133.3,-106.4 210,-162.1 h 1405.1 c 7.9,54.8 15.6,108.8 23.2,162.1" /><g
         transform="scale(1.03807)"
         id="g20"><path
           id="path22"
           style="fill:#15151c;fill-opacity:1;fill-rule:nonzero;stroke:none"
           d="m 5616.97,16148.6 h 3977.81 v -272.5 H 5616.97 Z m 4073.01,0 h 2048.32 v -272.5 H 9689.98 Z M 5934.75,12572.2 h -21.78 -296 v 3302.6 h 296 21.78 3660.03 v -3102.3 c 26.41,-24.9 58.39,-54.2 95.2,-86.9 v 3189.2 h 296.02 21.8 1730.5 V 13834 c 50,88.2 104.8,166.5 162.9,228.2 V 16300 H 5466.03 v -3883.9 h 3451.26 c -6.36,52.5 -10.12,104.7 -10.95,156.1 H 5934.75" /></g><path
         id="path24"
         style="fill:#252745;fill-opacity:1;fill-rule:nonzero;stroke:none"
         d="m 8290.78,12615.8 h -133.9 l -162.23,-760.2 h 133.9 l 162.23,760.2" /><path
         id="path26"
         style="fill:#252745;fill-opacity:1;fill-rule:nonzero;stroke:none"
         d="m 8085.27,11595.6 c 0.32,19 1.8,39.2 5.78,62.3 14.03,81.4 37.5,197.7 37.5,197.7 h -133.9 c 0,0 -15,-76.5 -26.84,-144.3 -20.58,-117.8 -48.4,-251 119.61,-251 h 25.55 l -51.41,135.3 h 23.71" /><path
         id="path28"
         style="fill:#252745;fill-opacity:1;fill-rule:nonzero;stroke:none"
         d="m 8886.84,11528 c 0,37.3 -25.71,67.6 -57.43,67.6 h -744.14 -23.71 l 51.41,-135.3 h 108.44 608 c 31.72,0 57.43,30.3 57.43,67.7" /><path
         id="path30"
         style="fill:#424881;fill-opacity:1;fill-rule:nonzero;stroke:none"
         d="m 9676.37,11595.6 h -846.96 c 31.72,0 57.43,-30.3 57.43,-67.6 0,-37.4 -25.71,-67.7 -57.43,-67.7 h 812.78 133.9 498.11 c -65.1,42.5 -133.4,87.8 -202.8,135.3 h -395.03" /><g
         transform="scale(1.01099)"
         id="g32"><path
           id="path34"
           style="fill:#1b1c28;fill-opacity:1;fill-rule:nonzero;stroke:none"
           d="M 8924.59,15361.9 H 7868.35 v 50.9 h 1056.24 z m -201.57,-192.2 h -819.97 v 50.9 h 819.97 z m -370.5,-1430.4 H 8164.9 v 50.9 h 187.62 z m -257.13,0 h -180.63 v 50.9 h 180.63 z m -108.92,-186.4 h -620.76 v 50.9 h 620.76 z m 0,-166.8 h -273.29 v 51 h 273.29 z m -352.03,0 h -268.73 v 51 h 268.73 z m -219.74,-275.6 h -125.14 v 51 h 125.14 z m -187.66,891.8 h -363.62 v 50.9 h 363.62 z m 0,-891.8 h -363.62 v 51 h 363.62 z m -363.62,217.7 h 245.47 v -51 h -245.47 z m 245.47,891.8 v -51 h -245.47 v 51 z m -250.11,141.3 h 648.5 v -50.9 h -648.5 z m 245.47,192.2 v -50.9 h -245.47 v 50.9 z m -493.68,282.6 h 708.81 v -51 h -708.81 z m -62.47,1000.7 h -363.7 v 50.9 h 363.7 z m 0,-834 h -363.7 v 51 h 363.7 z m -363.7,1051.6 h 245.58 v -50.9 H 6184.4 Z m 0,166.9 h 648.62 v -51 H 6184.4 Z m 741.19,0 h 166.87 v -51 h -166.87 z m -315.02,-384.5 v 50.9 h 125.16 v -50.9 z m 125.16,-783 v -51 h -125.16 v 51 z m 604.52,616.2 h -729.68 v 50.9 h 729.68 z m 69.47,50.9 h 187.59 v -50.9 h -187.59 z m 159.8,-192.2 v 50.9 h 187.59 v -50.9 z m 187.59,-115.9 v -50.9 h -187.59 v 50.9 z m 83.46,-192.2 v -50.9 H 6770.42 v 50.9 z m -521.19,308.1 v 50.9 h 180.71 v -50.9 z m -548.96,0 v 50.9 h 465.59 v -50.9 z m 729.67,-115.9 v -50.9 h -729.67 v 50.9 z m -210.53,-1410.5 v 50.9 h 125.14 v -50.9 z m 76.19,-212.1 h 465.54 v -50.9 h -465.54 z m 870.9,1789.4 v -50.9 h -368.3 v 50.9 z m -528.11,141.3 H 8764.78 V 15670 H 7708.54 Z M 6093.71,16300 V 12909 H 9144.9 c -1.31,80.4 4.26,158.8 18.67,233.1 -85.9,28.9 -392.87,122.1 -567.51,244 h -544.73 v 51 h 482.06 c -37.37,36.5 -60.48,74.8 -61.01,114.2 0,0.6 0,1.1 0,1.6 h -421.05 v 50.9 h 420.42 c -0.65,63.8 -0.22,104.5 4.6,135.5 h -12.71 v 50.9 h 28.79 c 24.38,47.4 76,89.1 183.99,231 l 94.74,30 c -385.64,493.4 -172.95,546.7 -172.95,546.7 l 377.31,-522.1 c 9.58,-8 19.97,-20.5 32.57,-40.3 67.69,-106.9 178.81,-172.8 220.39,-247.8 27.15,-49.3 92.11,-176.3 137.51,-306.8 l 394.49,-276.7 c 0,0 32.69,-34.2 91.3,-89.5 V 16300 H 6093.71" /></g><g
         transform="scale(1.01099)"
         id="g36"><path
           id="path38"
           style="fill:#1b1c28;fill-opacity:1;fill-rule:nonzero;stroke:none"
           d="m 6008.4,16170.3 h -166.76 v 51 h 166.76 z m 0,-166.8 h -166.76 v 50.9 h 166.76 z m 0,-166.7 h -166.76 v 50.9 h 166.76 z m 0,-166.8 h -166.76 v 50.9 h 166.76 z m 0,-166.8 h -166.76 v 50.9 h 166.76 z m 0,-166.7 h -166.76 v 50.9 h 166.76 z m 0,-166.8 h -166.76 v 50.9 h 166.76 z m 0,-166.9 h -166.76 v 51 h 166.76 z m 0,-166.7 h -166.76 v 51 h 166.76 z m 0,-166.8 h -166.76 v 51 h 166.76 z m 0,-166.7 h -166.76 v 50.9 h 166.76 z m 0,-166.8 h -166.76 v 50.9 h 166.76 z m 0,-166.8 h -166.76 v 51 h 166.76 z m 0,-166.7 h -166.76 v 50.9 h 166.76 z m 0,-166.8 h -166.76 v 51 h 166.76 z m 0,-166.8 h -166.76 v 51 h 166.76 z m 0,-166.8 h -166.76 v 51 h 166.76 z m 0,-166.7 h -166.76 v 50.9 h 166.76 z m 0,-166.8 h -166.76 v 51 h 166.76 z m 0,-166.8 h -166.76 v 50.9 H 6008.4 Z M 5767.42,16300 v -3391 h 303.93 v 3391 h -303.93" /></g><g
         transform="scale(1.01099)"
         id="g40"><path
           id="path42"
           style="fill:#ffffff;fill-opacity:1;fill-rule:nonzero;stroke:none"
           d="m 6071.35,16300 v -3391 h 22.36 v 3391 h -22.36" /></g><g
         transform="scale(1.02564)"
         id="g44"><path
           id="path46"
           style="fill:#3bbec5;fill-opacity:1;fill-rule:nonzero;stroke:none"
           d="m 8962.39,16300 c -51.72,0 -93.62,-41.9 -93.62,-93.6 0,-51.7 41.9,-93.6 93.62,-93.6 51.68,0 93.61,41.9 93.61,93.6 0,51.7 -41.93,93.6 -93.61,93.6" /></g><g
         transform="scale(1.02564)"
         id="g48"><path
           id="path50"
           style="fill:#3bbec5;fill-opacity:1;fill-rule:nonzero;stroke:none"
           d="m 9208.96,16300 c -51.73,0 -93.58,-41.9 -93.58,-93.6 0,-51.7 41.85,-93.6 93.58,-93.6 51.68,0 93.65,41.9 93.65,93.6 0,51.7 -41.97,93.6 -93.65,93.6" /></g><g
         transform="scale(1.02564)"
         id="g52"><path
           id="path54"
           style="fill:#3bbec5;fill-opacity:1;fill-rule:nonzero;stroke:none"
           d="m 9453.31,16300 c -51.75,0 -93.68,-41.9 -93.68,-93.6 0,-51.7 41.93,-93.6 93.68,-93.6 51.61,0 93.62,41.9 93.62,93.6 0,51.7 -42.01,93.6 -93.62,93.6" /></g><g
         transform="scale(1.00611)"
         id="g56"><path
           id="path58"
           style="fill:#ffffff;fill-opacity:1;fill-rule:nonzero;stroke:none"
           d="m 5870,16248.8 h 167.57 v 51.2 H 5870 v -51.2" /></g><path
         id="path60"
         style="fill:#ffffff;fill-opacity:1;fill-rule:nonzero;stroke:none"
         d="m 5905.86,16179.4 h 168.59 v 51.5 h -168.59 v -51.5" /><path
         id="path62"
         style="fill:#ffffff;fill-opacity:1;fill-rule:nonzero;stroke:none"
         d="m 5905.86,16010.9 h 168.59 v 51.4 h -168.59 v -51.4" /><path
         id="path64"
         style="fill:#ffffff;fill-opacity:1;fill-rule:nonzero;stroke:none"
         d="m 5905.86,15842.2 h 168.59 v 51.5 h -168.59 v -51.5" /><path
         id="path66"
         style="fill:#ffffff;fill-opacity:1;fill-rule:nonzero;stroke:none"
         d="m 5905.86,15673.6 h 168.59 v 51.5 h -168.59 v -51.5" /><path
         id="path68"
         style="fill:#ffffff;fill-opacity:1;fill-rule:nonzero;stroke:none"
         d="m 5905.86,15505 h 168.59 v 51.5 h -168.59 v -51.5" /><path
         id="path70"
         style="fill:#ffffff;fill-opacity:1;fill-rule:nonzero;stroke:none"
         d="m 5905.86,15336.4 h 168.59 v 51.5 h -168.59 v -51.5" /><path
         id="path72"
         style="fill:#ffffff;fill-opacity:1;fill-rule:nonzero;stroke:none"
         d="m 5905.86,15167.8 h 168.59 v 51.5 h -168.59 v -51.5" /><path
         id="path74"
         style="fill:#ffffff;fill-opacity:1;fill-rule:nonzero;stroke:none"
         d="m 5905.86,14999.2 h 168.59 v 51.5 h -168.59 v -51.5" /><path
         id="path76"
         style="fill:#ffffff;fill-opacity:1;fill-rule:nonzero;stroke:none"
         d="m 5905.86,14830.6 h 168.59 v 51.5 h -168.59 v -51.5" /><path
         id="path78"
         style="fill:#ffffff;fill-opacity:1;fill-rule:nonzero;stroke:none"
         d="m 5905.86,14662 h 168.59 v 51.5 h -168.59 v -51.5" /><path
         id="path80"
         style="fill:#ffffff;fill-opacity:1;fill-rule:nonzero;stroke:none"
         d="m 5905.86,14493.4 h 168.59 v 51.5 h -168.59 v -51.5" /><path
         id="path82"
         style="fill:#ffffff;fill-opacity:1;fill-rule:nonzero;stroke:none"
         d="m 5905.86,14324.7 h 168.59 v 51.6 h -168.59 v -51.6" /><path
         id="path84"
         style="fill:#ffffff;fill-opacity:1;fill-rule:nonzero;stroke:none"
         d="m 5905.86,14156.2 h 168.59 v 51.5 h -168.59 v -51.5" /><path
         id="path86"
         style="fill:#ffffff;fill-opacity:1;fill-rule:nonzero;stroke:none"
         d="m 5905.86,13987.6 h 168.59 v 51.5 h -168.59 v -51.5" /><path
         id="path88"
         style="fill:#ffffff;fill-opacity:1;fill-rule:nonzero;stroke:none"
         d="m 5905.86,13818.9 h 168.59 v 51.6 h -168.59 v -51.6" /><path
         id="path90"
         style="fill:#ffffff;fill-opacity:1;fill-rule:nonzero;stroke:none"
         d="m 5905.86,13650.4 h 168.59 v 51.5 h -168.59 v -51.5" /><path
         id="path92"
         style="fill:#ffffff;fill-opacity:1;fill-rule:nonzero;stroke:none"
         d="m 5905.86,13481.8 h 168.59 v 51.5 h -168.59 v -51.5" /><path
         id="path94"
         style="fill:#ffffff;fill-opacity:1;fill-rule:nonzero;stroke:none"
         d="m 5905.86,13313.1 h 168.59 v 51.6 h -168.59 v -51.6" /><path
         id="path96"
         style="fill:#ffffff;fill-opacity:1;fill-rule:nonzero;stroke:none"
         d="m 5905.86,13144.5 h 168.59 v 51.5 h -168.59 v -51.5" /><g
         transform="scale(1.00611)"
         id="g98"><path
           id="path100"
           style="fill:#ed3947;fill-opacity:1;fill-rule:nonzero;stroke:none"
           d="m 6866.19,16300 h -651.77 v -51.2 h 651.77 v 51.2" /></g><path
         id="path102"
         style="fill:#ed3947;fill-opacity:1;fill-rule:nonzero;stroke:none"
         d="m 7589.8,14519.1 h -655.62 v -51.4 h 655.62 v 51.4" /><path
         id="path104"
         style="fill:#ed3947;fill-opacity:1;fill-rule:nonzero;stroke:none"
         d="m 7182.34,14662 v 51.5 h -248.16 v -51.5 h 248.16" /><path
         id="path106"
         style="fill:#3bbec5;fill-opacity:1;fill-rule:nonzero;stroke:none"
         d="m 6500.66,16230.9 h -248.28 v -51.5 h 248.28 v 51.5" /><path
         id="path108"
         style="fill:#3bbec5;fill-opacity:1;fill-rule:nonzero;stroke:none"
         d="m 6252.38,16010.9 h 367.7 v 51.4 h -367.7 v -51.4" /><path
         id="path110"
         style="fill:#00adef;fill-opacity:1;fill-rule:nonzero;stroke:none"
         d="m 6683.24,16062.3 v -51.4 h 126.53 v 51.4 h -126.53" /><path
         id="path112"
         style="fill:#3bbec5;fill-opacity:1;fill-rule:nonzero;stroke:none"
         d="m 7187.03,14324.7 v 51.6 h -248.16 v -51.6 h 248.16" /><path
         id="path114"
         style="fill:#3bbec5;fill-opacity:1;fill-rule:nonzero;stroke:none"
         d="m 6938.87,14156.2 h 367.61 v 51.5 h -367.61 v -51.5" /><path
         id="path116"
         style="fill:#00adef;fill-opacity:1;fill-rule:nonzero;stroke:none"
         d="m 7496.21,14207.7 h -126.52 v -51.5 h 126.52 v 51.5" /><path
         id="path118"
         style="fill:#3bbec5;fill-opacity:1;fill-rule:nonzero;stroke:none"
         d="m 7187.03,13474.7 h -248.16 v -51.5 h 248.16 v 51.5" /><path
         id="path120"
         style="fill:#3bbec5;fill-opacity:1;fill-rule:nonzero;stroke:none"
         d="m 6938.87,13254.7 h 367.61 v 51.5 h -367.61 v -51.5" /><path
         id="path122"
         style="fill:#00adef;fill-opacity:1;fill-rule:nonzero;stroke:none"
         d="m 7369.69,13254.7 h 126.52 v 51.5 h -126.52 v -51.5" /><path
         id="path124"
         style="fill:#3bbec5;fill-opacity:1;fill-rule:nonzero;stroke:none"
         d="m 6252.38,15167.8 h 367.7 v 51.5 h -367.7 v -51.5" /><path
         id="path126"
         style="fill:#00adef;fill-opacity:1;fill-rule:nonzero;stroke:none"
         d="m 6683.24,15167.8 h 126.53 v 51.5 h -126.53 v -51.5" /><g
         transform="scale(1.00611)"
         id="g128"><path
           id="path130"
           style="fill:#80cc28;fill-opacity:1;fill-rule:nonzero;stroke:none"
           d="m 7126.89,16300 h -167.68 v -51.2 h 167.68 v 51.2" /></g><path
         id="path132"
         style="fill:#80cc28;fill-opacity:1;fill-rule:nonzero;stroke:none"
         d="m 7399.84,14999.2 h -716.6 v -51.5 h 716.6 v 51.5" /><path
         id="path134"
         style="fill:#ffffff;fill-opacity:1;fill-rule:nonzero;stroke:none"
         d="m 6683.24,15842.2 h 737.7 v 51.5 h -737.7 v -51.5" /><path
         id="path136"
         style="fill:#ffffff;fill-opacity:1;fill-rule:nonzero;stroke:none"
         d="M 8861.13,15893.7 H 7793.28 v -51.5 h 1067.85 v 51.5" /><path
         id="path138"
         style="fill:#ffffff;fill-opacity:1;fill-rule:nonzero;stroke:none"
         d="m 7680.82,15893.7 h -189.65 v -51.5 h 189.65 v 51.5" /><path
         id="path140"
         style="fill:#ffffff;fill-opacity:1;fill-rule:nonzero;stroke:none"
         d="m 6844.84,15530.8 h 737.7 v 51.5 h -737.7 v -51.5" /><path
         id="path142"
         style="fill:#ffffff;fill-opacity:1;fill-rule:nonzero;stroke:none"
         d="M 7954.84,15530.8 H 9022.7 v 51.5 H 7954.84 v -51.5" /><path
         id="path144"
         style="fill:#ffffff;fill-opacity:1;fill-rule:nonzero;stroke:none"
         d="m 7652.73,15530.8 h 189.65 v 51.5 h -189.65 v -51.5" /><path
         id="path146"
         style="fill:#ffffff;fill-opacity:1;fill-rule:nonzero;stroke:none"
         d="m 6844.84,15750.9 v -51.5 h 470.71 v 51.5 h -470.71" /><path
         id="path148"
         style="fill:#ffffff;fill-opacity:1;fill-rule:nonzero;stroke:none"
         d="m 7582.54,15750.9 h -182.7 v -51.5 h 182.7 v 51.5" /><path
         id="path150"
         style="fill:#ffffff;fill-opacity:1;fill-rule:nonzero;stroke:none"
         d="m 8327.19,15699.4 v 51.5 h -372.35 v -51.5 h 372.35" /><path
         id="path152"
         style="fill:#ffffff;fill-opacity:1;fill-rule:nonzero;stroke:none"
         d="m 7842.38,15750.9 h -189.65 v -51.5 h 189.65 v 51.5" /><path
         id="path154"
         style="fill:#ffffff;fill-opacity:1;fill-rule:nonzero;stroke:none"
         d="m 6844.84,15336.4 h 1081.92 v 51.5 H 6844.84 v -51.5" /><path
         id="path156"
         style="fill:#ffffff;fill-opacity:1;fill-rule:nonzero;stroke:none"
         d="m 7989.92,15336.4 h 828.99 v 51.5 h -828.99 v -51.5" /><path
         id="path158"
         style="fill:#ffffff;fill-opacity:1;fill-rule:nonzero;stroke:none"
         d="m 7917.38,13941.8 h -470.66 v -51.5 h 470.66 v 51.5" /><path
         id="path160"
         style="fill:#ffffff;fill-opacity:1;fill-rule:nonzero;stroke:none"
         d="m 8001.76,13890.3 h 182.62 v 51.5 h -182.62 v -51.5" /><path
         id="path162"
         style="fill:#ffffff;fill-opacity:1;fill-rule:nonzero;stroke:none"
         d="m 8556.68,13941.8 v -51.5 h 12.85 c 3.17,20.1 8.36,36.2 16.25,51.5 h -29.1" /><path
         id="path164"
         style="fill:#ffffff;fill-opacity:1;fill-rule:nonzero;stroke:none"
         d="m 8254.65,13890.3 h 189.69 v 51.5 h -189.69 v -51.5" /><path
         id="path166"
         style="fill:#ffffff;fill-opacity:1;fill-rule:nonzero;stroke:none"
         d="m 7446.68,13701.9 h 627.58 v 51.5 h -627.58 v -51.5" /><path
         id="path168"
         style="fill:#ffffff;fill-opacity:1;fill-rule:nonzero;stroke:none"
         d="m 8139.84,13753.4 v -51.5 h 425.67 c -0.24,18.7 -0.43,35.7 -0.63,51.5 h -425.04" /><path
         id="path170"
         style="fill:#ffffff;fill-opacity:1;fill-rule:nonzero;stroke:none"
         d="m 7446.68,13533.3 h 271.68 v 51.5 h -271.68 v -51.5" /><path
         id="path172"
         style="fill:#ffffff;fill-opacity:1;fill-rule:nonzero;stroke:none"
         d="m 7797.97,13533.3 h 276.29 v 51.5 h -276.29 v -51.5" /><path
         id="path174"
         style="fill:#ffffff;fill-opacity:1;fill-rule:nonzero;stroke:none"
         d="m 8139.84,13584.8 v -51.5 h 550.71 c -23.91,16.7 -45.28,33.9 -63.36,51.5 h -487.35" /><g
         transform="scale(1.01099)"
         id="g176"><path
           id="path178"
           style="fill:#223150;fill-opacity:1;fill-rule:nonzero;stroke:none"
           d="m 10366.5,15053.8 h 167.1 v -51 h -167.1 z m 0,833.9 h 167.1 v -50.9 h -167.1 z m 0,166.7 h 112.8 v -50.9 h -112.8 z m 0,166.9 h 298 v -51 h -298 z m 340.6,0 h 76.7 v -51 h -76.7 z m -144.8,-384.5 v 50.9 h 57.6 v -50.9 z m 335.2,-166.8 h -335.2 v 50.9 h 335.2 z m 31.9,50.9 h 86.3 v -50.9 h -86.3 z m 137.3,0 h 485.3 v -50.9 h -485.3 z m 73.5,-192.2 v 50.9 h 169.2 v -50.9 z m 485.2,-166.8 h -485.2 v 50.9 h 485.2 z m -1.1,-1809 h -400.1 v 50.9 h 400.1 z m 0,-166.8 h -72.3 v 51 h 72.3 z m -100.1,0 h -300 v 51 h 300 z m -279.7,404.1 v -50.9 h -83 v 50.9 z m 118.1,0 v -50.9 h -86.2 v 50.9 z m 220.3,0 v -50.9 h -169.3 v 50.9 z m -50.1,1379.5 h -376.6 v 50.9 h 376.6 z m -338.4,-1616.8 h -285.1 v 50.9 h 285.1 z m 0,-166.8 h -125.6 v 51 h 125.6 z m -161.8,0 h -123.3 v 51 h 123.3 z m -100.8,-275.6 h -57.5 v 51 h 57.5 z m -86.3,891.8 h -167 v 50.9 h 167 z m 0,-891.8 h -167 v 51 h 167 z m -167,217.7 h 112.8 v -51 h -112.8 z m 112.8,891.8 v -51 h -112.8 v 51 z m -115,141.3 h 298 v -50.9 h -298 z m 112.8,192.2 v -50.9 h -112.8 v 50.9 z m 85.2,-551.2 v 50.9 h 57.5 v -50.9 z m 35,-212.1 h 213.9 v -50.9 h -213.9 z m 93.6,1738.5 v 50.9 h 86.2 v -50.9 z m 86.2,-115.9 v -50.9 h -86.2 v 50.9 z m 38.3,-192.2 v -50.9 h -491.6 v 50.9 z m -239.4,308.1 v 50.9 h 83 v -50.9 z m -252.2,0 v 50.9 h 213.8 v -50.9 z m 335.2,-115.9 v -50.9 h -335.2 v 50.9 z m -408.7,-410 v 51 h 57.6 v -51 z m 325.7,-166.7 v -51 h -325.7 v 51 z m 818.7,-1927.1 c 21.7,151.9 41.7,297.6 57.1,432.7 27.7,243.1 137.2,595.5 288.9,862.9 V 16300 h -1776.9 v -3391 h 1430.9" /></g><g
         transform="scale(1.01099)"
         id="g180"><path
           id="path182"
           style="fill:#223150;fill-opacity:1;fill-rule:nonzero;stroke:none"
           d="m 10190.5,16170.3 h -166.8 v 51 h 166.8 z m 0,-166.8 h -166.8 v 50.9 h 166.8 z m 0,-166.7 h -166.8 v 50.9 h 166.8 z m 0,-166.8 h -166.8 v 50.9 h 166.8 z m 0,-166.8 h -166.8 v 50.9 h 166.8 z m 0,-166.7 h -166.8 v 50.9 h 166.8 z m 0,-166.8 h -166.8 v 50.9 h 166.8 z m 0,-166.9 h -166.8 v 51 h 166.8 z m 0,-166.7 h -166.8 v 51 h 166.8 z m 0,-166.8 h -166.8 v 51 h 166.8 z m 0,-166.7 h -166.8 v 50.9 h 166.8 z m 0,-166.8 h -166.8 v 50.9 h 166.8 z m 0,-166.8 h -166.8 v 51 h 166.8 z m 0,-166.7 h -166.8 v 50.9 h 166.8 z m 0,-166.8 h -166.8 v 51 h 166.8 z m 0,-166.8 h -166.8 v 51 h 166.8 z m 0,-166.8 h -166.8 v 51 h 166.8 z m 0,-166.7 h -166.8 v 50.9 h 166.8 z m 0,-166.8 h -166.8 v 51 h 166.8 z m 0,-166.8 h -166.8 v 50.9 h 166.8 z m 63,3298.4 h -303.97 v -3274.6 c 40.16,-35.6 85.87,-74.8 136.67,-116.4 h 167.3 v 3391" /></g><g
         transform="scale(1.01099)"
         id="g184"><path
           id="path186"
           style="fill:#ffffff;fill-opacity:1;fill-rule:nonzero;stroke:none"
           d="m 10275.8,12909 v 3391 h -22.3 v -3391 h 22.3" /></g><path
         id="path188"
         style="fill:#323660;fill-opacity:1;fill-rule:nonzero;stroke:none"
         d="m 10839.3,12615.8 h 933.8 c 13,92.4 26.1,183.5 39.1,273 h -1405.1 c 128.5,-93.3 274.5,-188.4 432.2,-273" /><g
         transform="scale(1.05482)"
         id="g190"><path
           id="path192"
           style="fill:#323660;fill-opacity:1;fill-rule:nonzero;stroke:none"
           d="m 5175.25,16300 h -1.97 v -4339.8 h 1.97 2557.71 126.95 l -153.8,-720.8 c 0,0 -22.25,-110.2 -35.55,-187.3 -3.78,-21.9 -5.18,-41.1 -5.48,-59.1 h 705.46 802.95 c -18.3,109.1 12.77,246.4 12.77,246.4 l 10.56,49.5 c -214.72,186.7 -273.64,337.5 -355.74,617.1 -5.25,17.9 -10.1,36 -14.96,54.2 -22.55,85 -39.88,172.1 -50.4,258.8 H 5379.25 v 3822.2 H 11712.2 V 13839 c 26.4,28.1 53.4,53.4 81.1,73.6 28.9,19.3 73,49.8 124.9,86.2 V 16300 H 5175.25" /></g><g
         transform="scale(1.02843)"
         id="g194"><path
           id="path196"
           style="fill:#323660;fill-opacity:1;fill-rule:nonzero;stroke:none"
           d="m 8938.12,16255.9 c 51.54,0 93.36,-41.9 93.36,-93.4 0,-51.5 -41.82,-93.4 -93.36,-93.4 -51.58,0 -93.36,41.9 -93.36,93.4 0,51.5 41.78,93.4 93.36,93.4 z m 245.9,0 c 51.55,0 93.4,-41.9 93.4,-93.4 0,-51.5 -41.85,-93.4 -93.4,-93.4 -51.58,0 -93.32,41.9 -93.32,93.4 0,51.5 41.74,93.4 93.32,93.4 z m 243.7,0 c 51.46,0 93.36,-41.9 93.36,-93.4 0,-51.5 -41.9,-93.4 -93.36,-93.4 -51.62,0 -93.44,41.9 -93.44,93.4 0,51.5 41.82,93.4 93.44,93.4 z M 5669.63,16025 h 4015.12 v 275 H 5669.63 v -275" /></g><g
         transform="scale(1.02843)"
         id="g198"><path
           id="path200"
           style="fill:#323660;fill-opacity:1;fill-rule:nonzero;stroke:none"
           d="m 11101.7,16255.9 c 51.5,0 93.3,-41.9 93.3,-93.4 0,-51.5 -41.8,-93.4 -93.3,-93.4 -51.6,0 -93.4,41.9 -93.4,93.4 0,51.5 41.8,93.4 93.4,93.4 z m 245.9,0 c 51.5,0 93.3,-41.9 93.3,-93.4 0,-51.5 -41.8,-93.4 -93.3,-93.4 -51.5,0 -93.4,41.9 -93.4,93.4 0,51.5 41.9,93.4 93.4,93.4 z m 243.7,0 c 51.5,0 93.3,-41.9 93.3,-93.4 0,-51.5 -41.8,-93.4 -93.3,-93.4 -51.6,0 -93.5,41.9 -93.5,93.4 0,51.5 41.9,93.4 93.5,93.4 z M 9780.84,16025 h 2067.56 v 275 H 9780.84 v -275" /></g><g
         transform="scale(1.02564)"
         id="g202"><path
           id="path204"
           style="fill:#3bbec5;fill-opacity:1;fill-rule:nonzero;stroke:none"
           d="m 11131.8,16300 c -51.7,0 -93.6,-41.9 -93.6,-93.6 0,-51.7 41.9,-93.6 93.6,-93.6 51.7,0 93.6,41.9 93.6,93.6 0,51.7 -41.9,93.6 -93.6,93.6" /></g><g
         transform="scale(1.02564)"
         id="g206"><path
           id="path208"
           style="fill:#3bbec5;fill-opacity:1;fill-rule:nonzero;stroke:none"
           d="m 11378.4,16300 c -51.7,0 -93.6,-41.9 -93.6,-93.6 0,-51.7 41.9,-93.6 93.6,-93.6 51.7,0 93.6,41.9 93.6,93.6 0,51.7 -41.9,93.6 -93.6,93.6" /></g><g
         transform="scale(1.02564)"
         id="g210"><path
           id="path212"
           style="fill:#3bbec5;fill-opacity:1;fill-rule:nonzero;stroke:none"
           d="m 11622.7,16300 c -51.6,0 -93.7,-41.9 -93.7,-93.6 0,-51.7 42.1,-93.6 93.7,-93.6 51.7,0 93.6,41.9 93.6,93.6 0,51.7 -41.9,93.6 -93.6,93.6" /></g><g
         transform="scale(1.00611)"
         id="g214"><path
           id="path216"
           style="fill:#ffffff;fill-opacity:1;fill-rule:nonzero;stroke:none"
           d="m 10072.4,16248.8 h 167.5 v 51.2 h -167.5 v -51.2" /></g><path
         id="path218"
         style="fill:#ffffff;fill-opacity:1;fill-rule:nonzero;stroke:none"
         d="m 10133.9,16179.4 h 168.6 v 51.5 h -168.6 v -51.5" /><path
         id="path220"
         style="fill:#ffffff;fill-opacity:1;fill-rule:nonzero;stroke:none"
         d="m 10133.9,16010.9 h 168.6 v 51.4 h -168.6 v -51.4" /><path
         id="path222"
         style="fill:#ffffff;fill-opacity:1;fill-rule:nonzero;stroke:none"
         d="m 10133.9,15842.2 h 168.6 v 51.5 h -168.6 v -51.5" /><path
         id="path224"
         style="fill:#ffffff;fill-opacity:1;fill-rule:nonzero;stroke:none"
         d="m 10133.9,15673.6 h 168.6 v 51.5 h -168.6 v -51.5" /><path
         id="path226"
         style="fill:#ffffff;fill-opacity:1;fill-rule:nonzero;stroke:none"
         d="m 10133.9,15505 h 168.6 v 51.5 h -168.6 v -51.5" /><path
         id="path228"
         style="fill:#ffffff;fill-opacity:1;fill-rule:nonzero;stroke:none"
         d="m 10133.9,15336.4 h 168.6 v 51.5 h -168.6 v -51.5" /><path
         id="path230"
         style="fill:#ffffff;fill-opacity:1;fill-rule:nonzero;stroke:none"
         d="m 10133.9,15167.8 h 168.6 v 51.5 h -168.6 v -51.5" /><path
         id="path232"
         style="fill:#ffffff;fill-opacity:1;fill-rule:nonzero;stroke:none"
         d="m 10133.9,14999.2 h 168.6 v 51.5 h -168.6 v -51.5" /><path
         id="path234"
         style="fill:#ffffff;fill-opacity:1;fill-rule:nonzero;stroke:none"
         d="m 10133.9,14830.6 h 168.6 v 51.5 h -168.6 v -51.5" /><path
         id="path236"
         style="fill:#ffffff;fill-opacity:1;fill-rule:nonzero;stroke:none"
         d="m 10133.9,14662 h 168.6 v 51.5 h -168.6 v -51.5" /><path
         id="path238"
         style="fill:#ffffff;fill-opacity:1;fill-rule:nonzero;stroke:none"
         d="m 10133.9,14493.4 h 168.6 v 51.5 h -168.6 v -51.5" /><path
         id="path240"
         style="fill:#ffffff;fill-opacity:1;fill-rule:nonzero;stroke:none"
         d="m 10133.9,14324.7 h 168.6 v 51.6 h -168.6 v -51.6" /><path
         id="path242"
         style="fill:#ffffff;fill-opacity:1;fill-rule:nonzero;stroke:none"
         d="m 10133.9,14156.2 h 168.6 v 51.5 h -168.6 v -51.5" /><path
         id="path244"
         style="fill:#ffffff;fill-opacity:1;fill-rule:nonzero;stroke:none"
         d="m 10133.9,13987.6 h 168.6 v 51.5 h -168.6 v -51.5" /><path
         id="path246"
         style="fill:#ffffff;fill-opacity:1;fill-rule:nonzero;stroke:none"
         d="m 10133.9,13818.9 h 168.6 v 51.6 h -168.6 v -51.6" /><path
         id="path248"
         style="fill:#ffffff;fill-opacity:1;fill-rule:nonzero;stroke:none"
         d="m 10133.9,13650.4 h 168.6 v 51.5 h -168.6 v -51.5" /><path
         id="path250"
         style="fill:#ffffff;fill-opacity:1;fill-rule:nonzero;stroke:none"
         d="m 10133.9,13481.8 h 168.6 v 51.5 h -168.6 v -51.5" /><path
         id="path252"
         style="fill:#ffffff;fill-opacity:1;fill-rule:nonzero;stroke:none"
         d="m 10133.9,13313.1 h 168.6 v 51.6 h -168.6 v -51.6" /><path
         id="path254"
         style="fill:#ffffff;fill-opacity:1;fill-rule:nonzero;stroke:none"
         d="m 10133.9,13144.5 h 168.6 v 51.5 h -168.6 v -51.5" /><g
         transform="scale(1.00611)"
         id="g256"><path
           id="path258"
           style="fill:#ed3947;fill-opacity:1;fill-rule:nonzero;stroke:none"
           d="m 10716.2,16300 h -299.3 v -51.2 h 299.3 v 51.2" /></g><path
         id="path260"
         style="fill:#ed3947;fill-opacity:1;fill-rule:nonzero;stroke:none"
         d="m 11094.9,14519.1 h -301.2 v -51.4 h 301.2 v 51.4" /><path
         id="path262"
         style="fill:#ed3947;fill-opacity:1;fill-rule:nonzero;stroke:none"
         d="m 10907.7,14662 v 51.5 h -114 v -51.5 h 114" /><path
         id="path264"
         style="fill:#3bbec5;fill-opacity:1;fill-rule:nonzero;stroke:none"
         d="m 10594.5,16230.9 h -114 v -51.5 h 114 v 51.5" /><path
         id="path266"
         style="fill:#3bbec5;fill-opacity:1;fill-rule:nonzero;stroke:none"
         d="m 10649.4,16062.3 h -168.9 v -51.4 h 168.9 v 51.4" /><path
         id="path268"
         style="fill:#00adef;fill-opacity:1;fill-rule:nonzero;stroke:none"
         d="m 10678.4,16062.3 v -51.4 h 58.2 v 51.4 h -58.2" /><path
         id="path270"
         style="fill:#3bbec5;fill-opacity:1;fill-rule:nonzero;stroke:none"
         d="m 10909.9,14324.7 v 51.6 h -114 v -51.6 h 114" /><path
         id="path272"
         style="fill:#3bbec5;fill-opacity:1;fill-rule:nonzero;stroke:none"
         d="m 10795.9,14156.2 h 168.8 v 51.5 h -168.8 v -51.5" /><path
         id="path274"
         style="fill:#00adef;fill-opacity:1;fill-rule:nonzero;stroke:none"
         d="m 11052,14207.7 h -58.2 v -51.5 h 58.2 v 51.5" /><path
         id="path276"
         style="fill:#3bbec5;fill-opacity:1;fill-rule:nonzero;stroke:none"
         d="m 10909.9,13474.7 h -114 v -51.5 h 114 v 51.5" /><path
         id="path278"
         style="fill:#3bbec5;fill-opacity:1;fill-rule:nonzero;stroke:none"
         d="m 10795.9,13254.7 h 168.8 v 51.5 h -168.8 v -51.5" /><path
         id="path280"
         style="fill:#00adef;fill-opacity:1;fill-rule:nonzero;stroke:none"
         d="m 10993.8,13254.7 h 58.2 v 51.5 h -58.2 v -51.5" /><path
         id="path282"
         style="fill:#3bbec5;fill-opacity:1;fill-rule:nonzero;stroke:none"
         d="m 10649.4,15219.3 h -168.9 v -51.5 h 168.9 v 51.5" /><path
         id="path284"
         style="fill:#00adef;fill-opacity:1;fill-rule:nonzero;stroke:none"
         d="m 10678.4,15219.3 v -51.5 h 58.2 v 51.5 h -58.2" /><g
         transform="scale(1.00611)"
         id="g286"><path
           id="path288"
           style="fill:#80cc28;fill-opacity:1;fill-rule:nonzero;stroke:none"
           d="m 10836.1,16300 h -77 v -51.2 h 77 v 51.2" /></g><path
         id="path290"
         style="fill:#80cc28;fill-opacity:1;fill-rule:nonzero;stroke:none"
         d="m 10678.4,14947.7 h 329.3 v 51.5 h -329.3 v -51.5" /><path
         id="path292"
         style="fill:#ffffff;fill-opacity:1;fill-rule:nonzero;stroke:none"
         d="m 10678.4,15842.2 h 338.9 v 51.5 h -338.9 v -51.5" /><path
         id="path294"
         style="fill:#ffffff;fill-opacity:1;fill-rule:nonzero;stroke:none"
         d="m 11679,15893.7 h -490.6 v -51.5 h 490.6 v 51.5" /><path
         id="path296"
         style="fill:#ffffff;fill-opacity:1;fill-rule:nonzero;stroke:none"
         d="m 11136.8,15893.7 h -87.3 v -51.5 h 87.3 v 51.5" /><path
         id="path298"
         style="fill:#ffffff;fill-opacity:1;fill-rule:nonzero;stroke:none"
         d="m 10752.7,15530.8 h 338.9 v 51.5 h -338.9 v -51.5" /><path
         id="path300"
         style="fill:#ffffff;fill-opacity:1;fill-rule:nonzero;stroke:none"
         d="m 11262.7,15530.8 h 490.5 v 51.5 h -490.5 v -51.5" /><path
         id="path302"
         style="fill:#ffffff;fill-opacity:1;fill-rule:nonzero;stroke:none"
         d="m 11123.8,15530.8 h 87.2 v 51.5 h -87.2 v -51.5" /><path
         id="path304"
         style="fill:#ffffff;fill-opacity:1;fill-rule:nonzero;stroke:none"
         d="m 10752.7,15750.9 v -51.5 h 216.2 v 51.5 h -216.2" /><path
         id="path306"
         style="fill:#ffffff;fill-opacity:1;fill-rule:nonzero;stroke:none"
         d="m 11091.6,15750.9 h -83.9 v -51.5 h 83.9 v 51.5" /><path
         id="path308"
         style="fill:#ffffff;fill-opacity:1;fill-rule:nonzero;stroke:none"
         d="m 11262.7,15750.9 v -51.5 h 171 v 51.5 h -171" /><path
         id="path310"
         style="fill:#ffffff;fill-opacity:1;fill-rule:nonzero;stroke:none"
         d="m 11211,15750.9 h -87.2 v -51.5 h 87.2 v 51.5" /><path
         id="path312"
         style="fill:#ffffff;fill-opacity:1;fill-rule:nonzero;stroke:none"
         d="m 10752.7,15336.4 h 497 v 51.5 h -497 v -51.5" /><path
         id="path314"
         style="fill:#ffffff;fill-opacity:1;fill-rule:nonzero;stroke:none"
         d="m 11278.8,15336.4 h 380.8 v 51.5 h -380.8 v -51.5" /><path
         id="path316"
         style="fill:#ffffff;fill-opacity:1;fill-rule:nonzero;stroke:none"
         d="m 11245.5,13941.8 h -216.3 v -51.5 h 216.3 v 51.5" /><path
         id="path318"
         style="fill:#ffffff;fill-opacity:1;fill-rule:nonzero;stroke:none"
         d="m 11368.1,13890.3 v 51.5 h -83.9 v -51.5 h 83.9" /><path
         id="path320"
         style="fill:#ffffff;fill-opacity:1;fill-rule:nonzero;stroke:none"
         d="m 11539.1,13890.3 h 171.1 v 51.5 h -171.1 v -51.5" /><path
         id="path322"
         style="fill:#ffffff;fill-opacity:1;fill-rule:nonzero;stroke:none"
         d="m 11487.5,13890.3 v 51.5 h -87.1 v -51.5 h 87.1" /><path
         id="path324"
         style="fill:#ffffff;fill-opacity:1;fill-rule:nonzero;stroke:none"
         d="m 11029.2,13701.9 h 288.3 v 51.5 h -288.3 v -51.5" /><path
         id="path326"
         style="fill:#ffffff;fill-opacity:1;fill-rule:nonzero;stroke:none"
         d="m 11347.6,13701.9 h 404.5 v 51.5 h -404.5 v -51.5" /><path
         id="path328"
         style="fill:#ffffff;fill-opacity:1;fill-rule:nonzero;stroke:none"
         d="m 11029.2,13533.3 h 124.7 v 51.5 h -124.7 v -51.5" /><path
         id="path330"
         style="fill:#ffffff;fill-opacity:1;fill-rule:nonzero;stroke:none"
         d="m 11190.5,13533.3 h 127 v 51.5 h -127 v -51.5" /><path
         id="path332"
         style="fill:#ffffff;fill-opacity:1;fill-rule:nonzero;stroke:none"
         d="m 11679,13533.3 h 73.1 v 51.5 h -73.1 v -51.5" /><path
         id="path334"
         style="fill:#ffffff;fill-opacity:1;fill-rule:nonzero;stroke:none"
         d="m 11347.6,13533.3 h 303.3 v 51.5 h -303.3 v -51.5" /><path
         id="path336"
         style="fill:#dfb38f;fill-opacity:1;fill-rule:nonzero;stroke:none"
         d="m 10716.6,11171.9 c -42,32.8 -151.4,101.5 -291,190.7 -37,23.7 -76.4,49 -117.1,75.4 H 6957.42 v -446.2 h 4071.48 c -35,17.3 -72.8,36.6 -110.5,56.8 -78.2,41.9 -154.6,86.6 -201.8,123.3" /><g
         transform="scale(1.12704)"
         id="g338"><path
           id="path340"
           style="fill:#dfb38f;fill-opacity:1;fill-rule:nonzero;stroke:none"
           d="m 15286.7,10148.7 c -13.6,-132 -27.4,-263.98 -41.3,-395.92 h 696.5 358 0.1 v 395.92 h -1013.3" /></g><path
         id="path342"
         style="fill:#c58062;fill-opacity:1;fill-rule:nonzero;stroke:none"
         d="m 6553.91,10991.8 h 403.51 V 11438 H 2842.46 v -446.2 h 403.48 3307.97" /><g
         transform="scale(1.17559)"
         id="g344"><path
           id="path346"
           style="fill:#27294a;fill-opacity:1;fill-rule:nonzero;stroke:none"
           d="m 15626.8,9350.04 h -343.2 l 116.2,-1176.95 h -901.9 c -10.3,-114.92 -19.8,-229.84 -28.6,-344.76 h 964.5 l 523,-5298.7 h 343.2 l -673.2,6820.41" /></g><path
         id="path348"
         style="fill:#27294a;fill-opacity:1;fill-rule:nonzero;stroke:none"
         d="m 14656.2,6935 354.3,-3589.9 416.4,-130.4 -367.2,3720.3 h -403.5" /><path
         id="path350"
         style="fill:#27294a;fill-opacity:1;fill-rule:nonzero;stroke:none"
         d="M 6417.34,9608.2 H 3109.38 l 136.56,1383.6 h -403.48 l -791.37,-8018 h 403.52 l 614.77,6229.1 H 6377.34 L 5783.4,3185.1 c 10.94,9.9 22.77,19.9 36.83,29.6 l 380.2,107.3 756.99,7669.8 H 6553.91 L 6417.34,9608.2" /><path
         id="path352"
         style="fill:#14172c;fill-opacity:1;fill-rule:nonzero;stroke:none"
         d="M 9636.25,3559.1 8501.99,3214.7 c -158.51,-110.2 -107.5,-240.9 -107.5,-240.9 h 2390.41 l -169.5,852.9 -614.6,86.3 -364.55,-353.9" /><path
         id="path354"
         style="fill:#1c213f;fill-opacity:1;fill-rule:nonzero;stroke:none"
         d="m 10387.3,7043.5 -28,-87.3 c 11.6,-4 17.9,-16.6 14,-28.4 -71,-214.3 -91.9,-294.6 -146.8,-440.3 -69.3,-183.8 -140.4,-463.3 -204.3,-651.3 -124.9,-367.2 -260.75,-844.3 -415.05,-1288.5 -4.06,-11.6 -16.6,-17.7 -28.24,-14 l -51.21,-158.9 c 0,0 205.82,-146.2 499.7,-282.1 178.4,-82.5 389.2,-161.1 606.2,-201.1 25.2,-4.6 50.5,-8.9 75.8,-12.5 L 12096.8,6935 h -1460.4 c -98.4,0 -186.8,41.8 -249.1,108.5" /><path
         id="path356"
         style="fill:#232950;fill-opacity:1;fill-rule:nonzero;stroke:none"
         d="m 7040.43,3559.1 -840,-237.1 -380.2,-107.3 c -14.06,-9.7 -25.89,-19.7 -36.83,-29.6 -112.54,-102.7 -70.7,-211.3 -70.7,-211.3 h 49.84 403.51 2023.05 l -169.53,852.9 -614.61,86.3 -364.53,-353.9" /><path
         id="path358"
         style="fill:#29315e;fill-opacity:1;fill-rule:nonzero;stroke:none"
         d="m 12965.1,9560.6 c -164.3,7.5 -817.1,55.8 -1021.9,260.1 -3.7,-3.5 -8.4,-6 -13.8,-6.4 -559.4,-37.4 -1128.3,-91.1 -1607.3,-108.8 -154.6,-5.6 -312.1,-3.2 -468.27,-7.7 l -244.57,-16.4 c -6.56,0 -12.7,-0.5 -19.18,-0.5 -107.89,-11.9 -214.1,-31.4 -317.11,-63.4 -316.45,-98.6 -497.77,-324.9 -626.56,-598.9 -128.48,-273.7 -201.76,-593.3 -300.28,-870 -150.43,-421.9 -313.43,-840.4 -470.19,-1259.3 -109.26,-292 -344.57,-876.7 -539.73,-1469.5 -3.91,-11.9 -16.68,-18.3 -28.55,-14.4 -0.24,0 -0.39,0.2 -0.63,0.3 L 6931.91,4374.8 c 0,0 205.82,-146.1 499.61,-282.1 178.44,-82.5 389.26,-161.1 606.25,-201 25.24,-4.7 50.47,-9 75.78,-12.6 l 2181.65,4025.5 h 163 c 52,31.9 112.8,50.6 178.2,50.6 h 44.7 1878.8 417.3 c 252.6,339.6 305.4,966.8 358.3,1379.3 2.7,20.3 4,41.4 6.3,62 -99.4,91.6 -216.2,156.7 -376.7,164.1" /><g
         transform="scale(1.13165)"
         id="g360"><path
           id="path362"
           style="fill:#451a29;fill-opacity:1;fill-rule:nonzero;stroke:none"
           d="m 12938,15254.4 c -2.7,190.9 -28.5,592.8 -306.3,657.5 -171.6,40 -154.2,-44 -247.2,15.1 -220.1,139.9 -498.4,97.3 -621.9,106.6 -339.3,266.4 -463.7,-106.6 -463.7,-106.6 -246.4,-39.9 -199.9,-259.7 -199.9,-259.7 -3,-74.7 -220.4,-79.9 -86.2,-310 45.6,-78.3 194,-72.3 348.7,-104.7 154.3,-32.3 314.7,-102.9 385.5,-333.6 15.2,-49.6 22.5,-44 29.6,-11.6 -23.2,85.3 -23.3,189.6 45.5,256 19.5,18.9 42.3,30 66.5,35.8 7.8,4.8 16.2,8.7 25.3,11.2 71,19.2 129.2,-13.2 171.7,-66.4 16,-13.3 29.3,-27.9 38.2,-42.7 57.8,-94.6 57.2,-238.5 -22.9,-335.8 -16.8,-20.3 -33.6,-35.2 -50.5,-46.3 44,-120 168.2,-354.4 218.2,-442.8 6.7,-11.8 12.4,-21.7 16,-27.6 49.9,-81.8 346.1,-59 518.3,3.5 163.9,59.3 135.1,223.7 135.1,276.2 0,372.8 6.1,294.6 0,725.9" /></g><g
         transform="scale(1.04927)"
         id="g364"><path
           id="path366"
           style="fill:#592630;fill-opacity:1;fill-rule:nonzero;stroke:none"
           d="m 12965.5,15992.1 c -6.2,1.8 -12,4.9 -17.8,7.8 -30,14.5 -55.3,41.1 -73.6,75.1 -8.1,15 -14.3,31.3 -19.5,47.8 -6.1,-5.7 -15.2,-7.5 -23.3,-3.9 -10.9,4.8 -15.9,17.5 -11.1,28.4 5.4,12 13.3,22.1 22.4,30.9 -1,9 -1.8,18 -1.8,26.5 -0.1,15.6 1.8,29.6 4.9,41.5 1.9,7.2 4.1,13.9 7,19.1 5.6,10.5 1.5,23.6 -9,29.1 -10.4,5.6 -23.5,1.6 -29,-9 -12.1,-22.8 -16.9,-50.7 -17,-80.7 0.1,-48.3 13.1,-102.7 38.5,-150.1 25.5,-47.2 64.2,-88.2 117.2,-103.9 11.5,-3.3 23.5,3.3 26.8,14.7 3.3,11.4 -3.3,23.3 -14.7,26.7" /></g><g
         transform="scale(1.04486)"
         id="g368"><path
           id="path370"
           style="fill:#592630;fill-opacity:1;fill-rule:nonzero;stroke:none"
           d="m 12896.9,16246.5 c -9.1,-8.8 -17.1,-18.9 -22.5,-31 -4.8,-11 0.2,-23.7 11.1,-28.5 8.1,-3.6 17.3,-1.8 23.4,3.9 2.1,2 3.9,4.4 5.2,7.1 3.8,9.1 12.1,18.2 23.4,26.3 4.8,3.6 10.1,7 15.9,10 19.1,10.3 41.8,17.3 60.3,20.9 11.7,2.3 19.3,13.7 17,25.4 -2.2,11.8 -13.5,19.4 -25.3,17.1 -22.1,-4.4 -48.3,-12.4 -72.4,-25.1 -4.2,-2.3 -8.3,-4.9 -12.4,-7.6 -8.4,-5.3 -16.6,-11.4 -23.7,-18.5" /></g><path
         id="path372"
         style="fill:#1d1e32;fill-opacity:1;fill-rule:nonzero;stroke:none"
         d="m 13599.4,15378.8 c 391.5,0.2 798,9.8 1140.7,183.4 11.2,5.6 15.6,19.2 10,30.3 -5.7,11.2 -19.3,15.6 -30.4,10 -329.9,-167.5 -729.5,-178.6 -1120.3,-178.4 -12.5,0 -22.6,-10.2 -22.6,-22.7 0,-12.5 10.1,-22.6 22.6,-22.6" /><path
         id="path374"
         style="fill:#1d1e32;fill-opacity:1;fill-rule:nonzero;stroke:none"
         d="m 13181.9,13690.3 c 0,0 0,-0.1 0,-0.1 0,-87.7 -5.8,-176.7 -16,-263 1.9,1.7 3.7,3.6 5.6,5.4 3.6,3.2 7.3,6.1 11,9.2 10.9,9.6 22,19 33.5,27.9 7.1,72.9 11.1,147.1 11.1,220.6 0,20.3 -1,40.3 -1.6,60.3 -3.5,121.6 -17.2,239.2 -44.9,342 -28.1,104.2 -93.1,265.8 -183.7,408.3 -5.5,8.6 -11.3,16.8 -16.9,25.2 -41.2,61.5 -87,118.7 -137.4,164.3 -57.3,51.7 -120.6,89.3 -189.3,100.3 -12.3,2 -23.9,-6.4 -25.9,-18.8 -2,-12.3 6.4,-23.9 18.8,-25.9 56.7,-8.9 112.9,-41.1 166.1,-89.2 29.7,-26.7 58.2,-58.3 85.3,-93 118.2,-151.6 207.1,-362 239.4,-483 30.9,-114.4 44.9,-250.6 44.9,-390.5" /><path
         id="path376"
         style="fill:#1d1e32;fill-opacity:1;fill-rule:nonzero;stroke:none"
         d="m 15983.8,14803.4 c 0,-147 4.7,-292.4 4.7,-441.2 v -0.6 -0.7 -0.1 c 0,-40.1 0.5,-80.6 0.5,-121.1 0,-137.9 -6.1,-275.6 -56.2,-398.7 -9.1,-22.4 -18.1,-43 -26.7,-63.1 16,-0.8 32,-1.8 48,-2.7 6.7,15.5 13.5,31.5 20.5,48.8 54,132.9 59.5,276.6 59.7,415.7 0,40.8 -0.6,81.4 -0.6,121.1 v 0.4 0.7 0.3 c 0,149.7 -4.6,295.1 -4.6,441.2 0,59.6 1.1,119.5 3.3,179.6 0.5,13.6 0.7,27 1.3,40.6 0.6,12.5 -9.1,23 -21.6,23.6 -12.5,0.6 -23,-9 -23.5,-21.5 -0.2,-1.2 -0.2,-2.4 -0.2,-3.6 -3.4,-73.6 -4.6,-146.4 -4.6,-218.7" /><path
         id="path378"
         style="fill:#f7bdbd;fill-opacity:1;fill-rule:nonzero;stroke:none"
         d="m 10000.8,3913 614.6,-86.3 18.2,64.9 c -217,40 -427.8,118.6 -606.2,201.1 l -26.6,-179.7" /><path
         id="path380"
         style="fill:#f7bdbd;fill-opacity:1;fill-rule:nonzero;stroke:none"
         d="m 7404.96,3913 614.61,-86.3 18.2,65 c -216.99,39.9 -427.81,118.5 -606.25,201 L 7404.96,3913" /><g
         transform="scale(1.05893)"
         id="g382"><path
           id="path384"
           style="fill:#f7bdbd;fill-opacity:1;fill-rule:nonzero;stroke:none"
           d="m 12697.8,16136.9 c 5.5,10.5 18.4,14.4 28.8,8.9 10.4,-5.5 14.4,-18.4 8.9,-28.8 -2.9,-5.2 -5,-11.8 -6.9,-19 -3.1,-11.8 -5,-25.6 -4.9,-41.1 0,-8.4 0.7,-17.3 1.8,-26.3 7,7 15.1,13 23.4,18.3 4,2.6 8.1,5.2 12.3,7.4 23.8,12.6 49.5,20.5 71.4,24.8 11.6,2.3 22.7,-5.2 25,-16.8 2.2,-11.6 -5.3,-22.8 -16.8,-25.1 -18.3,-3.6 -40.7,-10.5 -59.5,-20.6 -5.8,-3 -11,-6.4 -15.7,-9.9 -11.1,-8 -19.4,-17 -23.1,-25.9 -1.3,-2.8 -3.1,-5.1 -5.1,-7.1 5.2,-16.3 11.3,-32.4 19.3,-47.3 18.2,-33.7 43.2,-60.1 72.9,-74.5 5.8,-2.8 11.5,-5.9 17.7,-7.7 11.2,-3.3 17.7,-15.1 14.5,-26.5 -3.3,-11.2 -15.2,-17.8 -26.5,-14.5 -52.6,15.5 -90.9,56.2 -116.2,102.9 -25.2,47 -38,101 -38.1,148.8 0.1,29.8 4.8,57.3 16.8,80 z m 984.3,-905.9 c -184.1,-66.8 -500.6,-91.1 -554,-3.8 -3.7,6.3 -9.9,17 -17.1,29.6 -53.3,94.5 -186.1,344.9 -233.1,473.2 18,11.8 36.1,27.7 54,49.5 85.6,103.9 86.2,257.7 24.5,358.8 -9.6,15.8 -23.7,31.4 -40.9,45.7 -45.4,56.8 -107.6,91.4 -183.5,70.8 -9.7,-2.6 -18.7,-6.7 -27,-11.9 -25.9,-6.2 -50.3,-18.1 -71.1,-38.3 -73.5,-70.9 -73.4,-182.4 -48.6,-273.5 -7.6,-34.7 -15.4,-40.6 -31.6,12.4 -75.7,246.5 -247.1,321.9 -412,356.5 0.3,-10.7 0.5,-21.5 1.1,-32.2 1.5,-27.1 1.9,-113.5 5.9,-140.9 l 59,-135.5 c 12,-88.1 -132.9,-407.2 -132.9,-407.2 7.4,-67.5 198.6,-24.8 216.6,-90.8 59.5,-219.5 100.3,-592 364.6,-512.9 65.7,19.7 123.9,38.7 175.9,57.1 l 47.9,-322.6 c 107.5,69.9 274.3,66.6 394.9,91.1 131.9,26.9 389.7,80.2 517.5,81.1 l -110.1,343.8" /></g><path
         id="path386"
         style="fill:#f7bdbd;fill-opacity:1;fill-rule:nonzero;stroke:none"
         d="m 9107.11,14189.8 c -12.73,20 -23.24,32.7 -32.93,40.7 l -381.45,527.8 c 0,0 -215.03,-53.9 174.85,-552.6 l -95.78,-30.3 c -109.18,-143.6 -161.37,-185.7 -186.02,-233.6 -7.89,-15.3 -13.08,-31.4 -16.25,-51.5 -4.88,-31.3 -5.31,-72.4 -4.65,-136.9 0.2,-15.8 0.39,-32.8 0.63,-51.5 0,-0.6 0,-1 0,-1.6 0.54,-39.9 23.9,-78.6 61.68,-115.5 18.08,-17.6 39.45,-34.8 63.36,-51.5 176.56,-123.3 486.91,-217.5 573.75,-246.8 26.95,139.1 83.75,263.8 180.86,359.4 l 23.79,-16.8 c -45.9,132 -111.57,260.3 -139.03,310.2 -42.03,75.8 -154.37,142.5 -222.81,250.5" /><g
         transform="scale(1.01003)"
         id="g388"><path
           id="path390"
           style="fill:#ff5757;fill-opacity:1;fill-rule:nonzero;stroke:none"
           d="m 16253.9,13984.1 c -43.3,169.9 -134.5,460.8 -274.1,665.4 -27,73.9 -62.2,137.6 -106.6,184.7 -2.2,-59.5 -3.3,-118.8 -3.3,-177.8 0,-144.6 4.6,-288.6 4.6,-436.8 v -0.3 -0.7 -0.4 c 0,-39.4 0.6,-79.5 0.6,-119.9 -0.2,-137.7 -5.7,-280 -59.1,-411.6 -7,-17.1 -13.7,-33 -20.3,-48.3 68.9,-3.9 137.9,-8.1 206.8,-12.6 37.4,-2.4 74.9,-4.7 112.4,-7.3 59.4,-4.1 121.6,-8.5 185.1,-14.6 -5,129.3 -15,257.9 -46.1,380.2" /></g><path
         id="path392"
         style="fill:#ff5757;fill-opacity:1;fill-rule:nonzero;stroke:none"
         d="m 13045.1,11879.1 c -22.1,-68.5 -44.7,-136.7 -66.3,-205 -50.1,-158.5 -75.1,-326.6 -132.2,-488.9 -53.5,-151.4 -165.5,-322.6 -283.2,-431.7 -1,-0.9 -2,-1.6 -3,-2.5 1.8,-129.1 -53.7,-269.2 -105.2,-382.3 -46.1,-101 -103.8,-197.4 -172.7,-284.4 -43,-54.2 -320.3,-163.1 -354.8,-225 11.9,0.1 21.9,-8.8 22.7,-20.9 0.5,-7 -2.5,-13.2 -7.2,-17.7 204.8,-204.3 857.6,-252.6 1021.9,-260.1 160.5,-7.4 277.3,-72.5 376.7,-164.1 54,492 8.8,1040.3 -75.3,1520.6 -58.6,335.4 -123.6,644.2 -221.4,962" /><path
         id="path394"
         style="fill:#ff5757;fill-opacity:1;fill-rule:nonzero;stroke:none"
         d="m 13599.4,15424.1 c 390.8,-0.2 790.4,10.9 1120.3,178.4 11.1,5.6 24.7,1.2 30.4,-10 5.6,-11.1 1.2,-24.7 -10,-30.3 -342.7,-173.6 -749.2,-183.2 -1140.7,-183.4 -12.5,0 -22.6,10.1 -22.6,22.6 0,12.5 10.1,22.7 22.6,22.7 z m 2389.1,-1063.3 v 1.4 c 0,148.8 -4.7,294.2 -4.7,441.2 0,72.3 1.2,145.1 4.6,218.7 -8.5,6.2 -17.2,11.8 -26.3,16.9 l -1357,725.5 c -0.1,0 -0.1,0 -0.1,0 -135.3,-0.9 -408.3,-57.4 -548,-85.8 -127.7,-26 -304.3,-22.5 -418.2,-96.5 -5.8,-3.8 -12.2,-6.8 -17.7,-11 -106.5,-81.9 -242.7,-190.6 -416.6,-337.6 -102.4,-86.7 -428.6,-323.8 -633,-467.4 -54.7,-38.4 -101.2,-70.6 -131.7,-90.9 -29.2,-21.3 -57.7,-48.1 -85.5,-77.7 -60.3,-64 -117.2,-145.3 -169.1,-236.9 -153.4,-270.3 -264.1,-626.6 -292.1,-872.3 -15.6,-136.6 -35.8,-283.9 -57.7,-437.5 -7.6,-53.3 -15.3,-107.3 -23.2,-162.1 -13,-89.5 -26.1,-180.6 -39.1,-273 -11.3,-80.5 -22.4,-161.8 -33,-243.5 24.3,0.2 48.1,0.4 72.4,0.4 116.4,0 232.7,-2.8 343.6,-16.7 12.4,-1.5 21.2,-12.8 19.7,-25.2 -1.6,-12.4 -12.9,-21.2 -25.3,-19.6 -26.1,3.2 -52.7,5.8 -79.6,8 -83.9,6.6 -170.8,8.3 -258.4,8.3 -82.4,0 -165.4,-1.4 -247,-1.4 -12.6,0 -22.6,10.1 -22.6,22.6 0,4.6 1.7,8.7 4.1,12.3 -247.3,41.1 -488.6,137.3 -707.7,254.8 -157.7,84.6 -303.7,179.7 -432.2,273 -76.7,55.7 -147.2,110.6 -210,162.1 -51.4,42.1 -97.6,81.7 -138.2,117.7 -38.2,33.9 -71.4,64.4 -98.82,90.2 -59.26,55.9 -92.31,90.6 -92.31,90.6 l -398.82,279.7 -23.79,16.8 c -97.11,-95.6 -153.91,-220.3 -180.86,-359.4 -14.57,-75 -20.2,-154.3 -18.87,-235.6 0.86,-53.4 4.77,-107.6 11.37,-162.1 11.09,-91.4 29.37,-183.3 53.16,-273 5.12,-19.1 10.24,-38.3 15.78,-57.2 86.6,-294.8 148.75,-453.9 375.24,-650.9 10.74,-9.3 21.4,-18.6 32.93,-28.1 67.89,-56.3 137.54,-111.2 208.39,-165.2 7.39,9.6 20.98,11.9 30.9,4.7 167,-118.8 337.2,-229.2 476.8,-318.4 139.8,-89.4 248,-157 294.4,-193.1 42.7,-33.4 118.3,-78 195.3,-119.2 77.1,-41.3 156.1,-79.6 206.7,-102 151.3,-67 310.5,-161.6 472.7,-238.9 106.3,-50.8 213.6,-93.6 320.2,-117.3 11.7,-1.5 23.3,-2.2 35,-2.9 10.2,-3.5 20.7,-6.5 31.5,-9.1 33.7,-4.8 67.3,-8 100.7,-7.9 144.6,0.2 286.3,47.4 426.2,176.4 8.3,7.7 16.6,16.4 24.9,24.8 102.3,103.5 200,256.5 246.4,388.8 55.3,156.7 80.3,324.2 131.7,487.4 28.2,89.4 57.9,178 85.6,266.8 -2.7,8.5 -5.1,16.8 -7.9,25.3 -120,365.6 -187.2,737.5 -62.2,1106.7 7.8,23.2 16.4,45.3 25.4,66.7 3,7 6.3,13.6 9.3,20.4 6.4,14.1 12.9,28 19.8,41.4 3.9,7.5 8,14.8 12.1,22.1 6.7,12 13.5,23.8 20.6,35.3 4.5,7.1 9,14.1 13.6,21 7.4,11.1 15.1,21.8 23,32.4 4.6,6.2 9.3,12.6 14.1,18.6 8.9,11.3 18.3,22 27.7,32.6 4.1,4.6 8.1,9.4 12.2,13.9 11.9,12.6 24.3,24.7 36.9,36.3 10.2,86.3 16,175.3 16,263 0,0 0,0.1 0,0.1 0,139.9 -14,276.1 -44.9,390.5 -32.3,121 -121.2,331.4 -239.4,483 -27.1,34.7 -55.6,66.3 -85.3,93 -53.2,48.1 -109.4,80.3 -166.1,89.2 -12.4,2 -20.8,13.6 -18.8,25.9 2,12.4 13.6,20.8 25.9,18.8 68.7,-11 132,-48.6 189.3,-100.3 50.4,-45.6 96.2,-102.8 137.4,-164.3 5.6,-8.4 11.4,-16.6 16.9,-25.2 90.6,-142.5 155.6,-304.1 183.7,-408.3 27.7,-102.8 41.4,-220.4 44.9,-342 0.6,-20 1.6,-40 1.6,-60.3 0,-73.5 -4,-147.7 -11.1,-220.6 0.4,0.4 1,0.7 1.4,1.1 6.1,4.7 12.4,9.1 18.5,13.6 10,7.2 19.9,14.4 30.2,21.1 6.9,4.7 14.1,9.2 21.2,13.6 9.9,6.2 20,12.2 30.2,18 7.5,4.2 15,8.5 22.7,12.6 10.4,5.5 21.1,10.9 31.8,16.1 7.6,3.7 15.3,7.6 23,11.1 12,5.5 24.4,10.7 36.7,15.8 6.7,2.9 13.3,5.9 20.2,8.6 18.5,7.3 37.2,14.1 56.3,20.7 8.9,3 17.9,5.8 26.8,8.6 11.3,3.7 22.5,7.3 33.9,10.7 10.2,3 20.6,5.9 31,8.7 6.5,1.8 12.8,3.8 19.3,5.5 0.1,0 0.2,-0.1 0.2,-0.2 54.4,14.4 110.4,27 168.3,37.9 301.3,56.4 609.9,86.6 915.9,99.5 401.1,17 802,6.9 1202.5,-14.8 8.6,20.1 17.6,40.7 26.7,63.1 50.1,123.1 56.2,260.8 56.2,398.7 0,40.5 -0.5,81 -0.5,121.1" /><path
         id="path396"
         style="fill:#1d1e32;fill-opacity:1;fill-rule:nonzero;stroke:none"
         d="m 10716.6,11171.9 c 47.2,-36.7 123.6,-81.4 201.8,-123.3 37.7,-20.2 75.5,-39.5 110.5,-56.8 37.7,-18.6 72.2,-34.8 99.3,-46.8 147.7,-65.3 306.9,-159.8 471.4,-238.3 164.7,-78.5 335,-141.5 506.9,-141.6 153.7,-0.3 308,51.8 453.9,185.9 1,0.9 2,1.6 3,2.5 117.7,109.1 229.7,280.3 283.2,431.7 57.1,162.3 82.1,330.4 132.2,488.9 21.6,68.3 44.2,136.5 66.3,205 -7.8,25.1 -15.6,50.2 -23.8,75.4 -27.7,-88.8 -57.4,-177.4 -85.6,-266.8 -51.4,-163.2 -76.4,-330.7 -131.7,-487.4 -46.4,-132.3 -144.1,-285.3 -246.4,-388.8 -8.3,-8.4 -16.6,-17.1 -24.9,-24.8 -139.9,-129 -281.6,-176.2 -426.2,-176.4 -33.4,-0.1 -67,3.1 -100.7,7.9 -22.1,3.1 -44.4,7.1 -66.5,12 -106.6,23.7 -213.9,66.5 -320.2,117.3 -162.2,77.3 -321.4,171.9 -472.7,238.9 -50.6,22.4 -129.6,60.7 -206.7,102 -77,41.2 -152.6,85.8 -195.3,119.2 -46.4,36.1 -154.6,103.7 -294.4,193.1 -139.6,89.2 -309.8,199.6 -476.8,318.4 -9.92,7.2 -23.51,4.9 -30.9,-4.7 -0.19,-0.2 -0.46,-0.3 -0.62,-0.5 -7.27,-10.2 -4.88,-24.3 5.31,-31.6 41.45,-29.5 83.11,-58.5 124.41,-86.7 69.4,-47.5 137.7,-92.8 202.8,-135.3 11.5,-7.5 23,-15 34.3,-22.3 40.7,-26.4 80.1,-51.7 117.1,-75.4 139.6,-89.2 249,-157.9 291,-190.7" /><path
         id="path398"
         style="fill:#1d1e32;fill-opacity:1;fill-rule:nonzero;stroke:none"
         d="m 12175.8,12330.8 c 1.5,12.4 -7.3,23.7 -19.7,25.2 -110.9,13.9 -227.2,16.7 -343.6,16.7 -24.3,0 -48.1,-0.2 -72.4,-0.4 -58.5,-0.4 -117.2,-1 -174.6,-1 -7.9,0 -14.5,-4.3 -18.5,-10.3 -2.4,-3.6 -4.1,-7.7 -4.1,-12.3 0,-12.5 10,-22.6 22.6,-22.6 81.6,0 164.6,1.4 247,1.4 87.6,0 174.5,-1.7 258.4,-8.3 26.9,-2.2 53.5,-4.8 79.6,-8 12.4,-1.6 23.7,7.2 25.3,19.6" /><g
         transform="scale(1.07345)"
         id="g400"><path
           id="path402"
           style="fill:#58356a;fill-opacity:1;fill-rule:nonzero;stroke:none"
           d="m 16048.6,12497.6 c -160.7,218.1 -446.9,276.9 -711.6,302.6 -59.7,5.8 -118.3,9.9 -174.2,13.7 -35.2,2.5 -70.5,4.6 -105.7,6.9 -64.8,4.2 -129.8,8.2 -194.6,11.8 -14.9,0.9 -29.8,1.8 -44.7,2.6 -373.1,20.2 -746.6,29.6 -1120.3,13.8 -285,-12.1 -572.5,-40.2 -853.2,-92.8 -53.9,-10.1 -106.1,-21.8 -156.8,-35.2 268.2,-177.4 354.3,-547.6 399.7,-845.5 88.3,-578.9 61.1,-1169.6 68.8,-1753.2 0,0 -14,-1760.92 -330.9,-2711.41 h -735.8 -388.8 -1750.22 -41.65 c -60.92,0 -117.56,-17.42 -166.01,-47.14 -90.92,-55.89 -151.84,-156.04 -151.84,-270.62 v -314.88 c 0,-83.93 32.79,-159.95 85.8,-216.68 58.04,-62.14 140.39,-101.08 232.05,-101.08 h 1360.47 1165.6 205.1 205.2 808.4 375.9 1396.1 c 175.5,0 317.8,142.25 317.8,317.76 74.1,359.03 51.5,1007.88 72.2,1353.49 8.8,147.29 19.3,294.38 30.6,441.48 9.7,125.85 20.2,251.71 31.4,377.56 38.3,430.02 83.9,859.48 129.2,1288.92 14.6,138.5 29,277.1 43.4,415.7 21.8,212.2 43.2,424.4 62.7,636.7 35,382.2 187.3,864.6 -64.1,1205.5" /></g><path
         id="path404"
         style="fill:#694182;fill-opacity:1;fill-rule:nonzero;stroke:none"
         d="m 14048.4,12747.7 c -48.7,319.8 -141.1,717.2 -429,907.6 0,0.1 -0.1,0.2 -0.2,0.2 -6.5,-1.7 -12.8,-3.7 -19.3,-5.5 -10.4,-2.8 -20.8,-5.7 -31,-8.7 -11.4,-3.4 -22.6,-7 -33.9,-10.7 -8.9,-2.8 -17.9,-5.6 -26.8,-8.6 -19.1,-6.6 -37.8,-13.4 -56.3,-20.7 -6.9,-2.7 -13.5,-5.7 -20.2,-8.6 -12.3,-5.1 -24.7,-10.3 -36.7,-15.8 -7.7,-3.5 -15.4,-7.4 -23,-11.1 -10.7,-5.2 -21.4,-10.6 -31.8,-16.1 -7.7,-4.1 -15.2,-8.4 -22.7,-12.6 -10.2,-5.8 -20.3,-11.8 -30.2,-18 -7.1,-4.4 -14.3,-8.9 -21.2,-13.6 -10.3,-6.7 -20.2,-13.9 -30.2,-21.1 -6.1,-4.5 -12.4,-8.9 -18.5,-13.6 -0.4,-0.4 -1,-0.7 -1.4,-1.1 -11.5,-8.9 -22.6,-18.3 -33.5,-27.9 -3.7,-3.1 -7.5,-6 -11,-9.2 -1.9,-1.8 -3.7,-3.7 -5.6,-5.4 -12.6,-11.6 -25,-23.7 -36.9,-36.3 -4.1,-4.5 -8.1,-9.3 -12.2,-13.9 -9.4,-10.6 -18.8,-21.3 -27.7,-32.6 -4.8,-6 -9.5,-12.4 -14.1,-18.6 -7.9,-10.6 -15.6,-21.3 -23,-32.4 -4.6,-6.9 -9.1,-13.9 -13.6,-21 -7.1,-11.5 -13.9,-23.3 -20.6,-35.3 -4.1,-7.3 -8.2,-14.6 -12.1,-22.1 -6.9,-13.4 -13.4,-27.3 -19.8,-41.4 -3,-6.8 -6.3,-13.4 -9.3,-20.4 -9,-21.4 -17.6,-43.5 -25.4,-66.7 -125,-369.2 -57.8,-741.1 62.2,-1106.7 2.8,-8.5 5.2,-16.8 7.9,-25.3 8.2,-25.2 16,-50.3 23.8,-75.4 97.8,-317.8 162.8,-626.6 221.4,-962 84.1,-480.3 129.3,-1028.6 75.3,-1520.6 -2.3,-20.6 -3.6,-41.7 -6.3,-62 -52.9,-412.5 -105.7,-1039.7 -358.3,-1379.3 h 789.9 c 340.2,1020.3 355.2,2910.6 355.2,2910.6 -8.3,626.4 20.9,1260.5 -73.9,1881.9" /><path
         id="path406"
         style="fill:#7695c0;fill-opacity:1;fill-rule:nonzero;stroke:none"
         d="m 13587.5,3726 h 200.9 v 3209 h -220.2 V 3726 h 19.3" /><path
         id="path408"
         style="fill:#6880b6;fill-opacity:1;fill-rule:nonzero;stroke:none"
         d="M 13568.2,3726 V 6935 H 13348 V 3726 h 201 19.2" /><path
         id="path410"
         style="fill:#7695c0;fill-opacity:1;fill-rule:nonzero;stroke:none"
         d="m 13793.8,3726 h -5.4 l 1913.5,-597.4 -275,86.1 -416.4,130.4 -1216.7,380.9" /><path
         id="path412"
         style="fill:#7695c0;fill-opacity:1;fill-rule:nonzero;stroke:none"
         d="m 13532.5,3492.8 255.9,233.2 h -220.2 l -881.5,-752.2 h 862.3 38.5 1459.6 403.6 478 c -17,130 -226.8,154.8 -226.8,154.8 l -2169.4,364.2" /><path
         id="path414"
         style="fill:#6880b6;fill-opacity:1;fill-rule:nonzero;stroke:none"
         d="m 13549,3726 h -206.3 l -1908.2,-597.4 c 0,0 -209.7,-24.8 -226.6,-154.8 h 1478.8 l 881.5,752.2 h -19.2" /><path
         id="path416"
         style="fill:#93b0e1;fill-opacity:1;fill-rule:nonzero;stroke:none"
         d="m 13788.4,3726 -255.9,-233.2 2169.4,-364.2 z" /><path
         id="path418"
         style="fill:#1d1e32;fill-opacity:1;fill-rule:nonzero;stroke:none"
         d="m 11950.4,9838.4 c -0.8,12.1 -10.8,21 -22.7,20.9 -0.5,0 -0.8,0.2 -1.3,0.2 -560.2,-37.6 -1128.9,-91.2 -1606,-108.8 -347.24,-13 -716.73,16.6 -1060.87,-90.1 -331.8,-102.9 -523.2,-343.1 -654.06,-622.7 -131.13,-279.9 -204.45,-601 -301.95,-874.1 -150.08,-421.1 -313.01,-839.3 -469.93,-1258.7 -108.86,-291 -344.61,-876.7 -540.35,-1471.2 -3.83,-11.6 2.39,-24 13.79,-28.2 0.24,-0.1 0.39,-0.3 0.63,-0.3 11.87,-3.9 24.64,2.5 28.55,14.4 195.16,592.8 430.47,1177.5 539.73,1469.5 156.76,418.9 319.76,837.4 470.19,1259.3 98.52,276.7 171.8,596.3 300.28,870 128.79,274 310.11,500.3 626.56,598.9 103.01,32 209.22,51.5 317.11,63.4 87.03,9.6 175.19,14.3 263.75,16.9 156.17,4.5 313.67,2.1 468.27,7.7 479,17.7 1047.9,71.4 1607.3,108.8 5.4,0.4 10.1,2.9 13.8,6.4 4.7,4.5 7.7,10.7 7.2,17.7" /><path
         id="path420"
         style="fill:#1d1e32;fill-opacity:1;fill-rule:nonzero;stroke:none"
         d="m 9607.15,4547.7 c 154.3,444.2 290.15,921.3 415.05,1288.5 63.9,188 135,467.5 204.3,651.3 54.9,145.7 75.8,226 146.8,440.3 3.9,11.8 -2.4,24.4 -14,28.4 -0.2,0 -0.2,0.2 -0.4,0.2 -11.8,4 -24.6,-2.5 -28.5,-14.4 -71.3,-215.3 -92.1,-294.8 -146.2,-438.6 -70.7,-187.7 -141.7,-467.3 -204.79,-652.7 -125.46,-368.8 -261.21,-845.6 -415,-1288.1 -4.1,-11.8 2.15,-24.7 13.95,-28.8 0.16,-0.1 0.35,-0.1 0.55,-0.1 11.64,-3.7 24.18,2.4 28.24,14" /></g></g></svg>